<svg width="20" height="20" viewBox="0 0 20 20" fill="none" xmlns="http://www.w3.org/2000/svg">
<path d="M10.0002 8.57161C6.89827 8.57161 2.50027 14.0519 2.50027 17.5112C2.50027 19.0692 3.54753 20 5.30259 20C7.21038 20 8.47013 18.8804 10.0002 18.8804C11.5435 18.8804 12.8068 20 14.6978 20C16.4529 20 17.5001 19.0692 17.5001 17.5112C17.5001 14.0519 13.1021 8.57161 10.0002 8.57161ZM4.24713 8.00867C3.84088 6.46182 2.58934 5.46005 1.45185 5.77076C0.314359 6.08147 -0.278213 7.58725 0.128033 9.1341C0.534279 10.681 1.78583 11.6827 2.92332 11.372C4.0608 11.0613 4.65338 9.55552 4.24713 8.00867ZM7.55647 7.08101C8.76505 6.71762 9.36973 4.85158 8.90724 2.91322C8.44474 0.974853 7.09007 -0.301466 5.88149 0.0619209C4.67291 0.425308 4.06823 2.29135 4.53072 4.22971C4.99322 6.16807 6.34828 7.44484 7.55647 7.08101ZM18.5482 5.77121C17.4107 5.4605 16.1595 6.46227 15.7529 8.00912C15.3466 9.55597 15.9392 11.0617 17.0767 11.3725C18.2142 11.6832 19.4653 10.6814 19.872 9.13455C20.2782 7.5877 19.6856 6.08192 18.5482 5.77121ZM12.4439 7.08101C13.6525 7.44439 15.0072 6.16807 15.4697 4.22971C15.9322 2.29135 15.3275 0.425754 14.1189 0.0619209C12.9103 -0.301913 11.5556 0.974853 11.0932 2.91322C10.6307 4.85158 11.2353 6.71762 12.4439 7.08101Z" fill="#F43434"/>
</svg>
